<svg width="135" height="137" viewBox="0 0 135 137" fill="none" xmlns="http://www.w3.org/2000/svg">
<g clip-path="url(#clip0_7120_4594)">
<path d="M41.3388 114.234V127.03C41.3388 130.665 39.5352 132.605 36.258 132.605C32.9624 132.605 31.148 130.609 31.148 126.875V114.248H26.614V127.03C26.614 133.32 30.1074 136.924 36.1983 136.924C42.3468 136.924 45.8728 133.251 45.8728 126.846V114.234H41.3388ZM58.0204 114.234L48.1729 136.575H52.801L54.7019 132.249L54.8379 131.924H65.0681L67.0745 136.575H71.8285L62.0725 114.367L61.9849 114.234L58.0204 114.234ZM84.9792 114.234L79.9048 129.606L74.9652 114.246H70.1399L77.9289 136.589H81.6835L86.7681 121.912L91.8489 136.589H95.6353L103.405 114.246H98.7033L93.7535 129.606L88.6778 114.234H84.9792ZM129.349 114.234V136.556H133.824V114.234H129.349ZM1.01562 114.236V136.588H5.55094V127.51H15.7913V136.588H20.3279V114.236H15.7913V123.253H5.55094V114.236H1.01562ZM107.062 114.251V136.573H123.942V132.503H111.536V126.968H119.785V122.897H111.536V118.321H123.51V114.251H107.062ZM59.9415 119.891L63.1749 127.375H63.1635L63.3835 127.891H56.524L56.7413 127.375L59.9415 119.891Z" fill="#232527"/>
<path d="M57.4913 0.000288355C55.6924 0.159406 50.8312 1.26591 50.8312 1.26591C39.8741 4.09802 37.2823 14.0413 37.2823 14.0413C36.7472 15.7134 36.5042 17.4269 36.4327 19.0413V21.2386C36.5781 24.6334 37.3331 27.1683 37.3331 27.1683C40.9931 43.3975 58.9889 70.0644 62.8565 75.6663C63.1309 75.9384 63.3507 75.8402 63.3507 75.8402C63.7681 75.7249 63.7354 75.3245 63.7354 75.3245L63.7434 75.3265C69.7005 15.7833 57.4913 0.000288355 57.4913 0.000288355ZM77.1749 0.000288355C77.1749 0.000288355 64.9125 15.7916 70.8742 75.3695H70.8821C70.9282 75.7477 71.1966 75.8265 71.1966 75.8265C71.5955 75.981 71.8001 75.5978 71.8001 75.5978L71.8021 75.6016C75.7689 69.8567 93.6621 43.3349 97.306 27.168C97.306 27.168 99.2816 19.3431 97.3744 14.041C97.3744 14.041 94.6656 3.94374 83.6947 1.27539C83.6947 1.27539 80.5329 0.473069 77.1749 0.000288355ZM20.6144 17.8753C20.6144 17.8753 10.1743 27.7843 9.65541 38.2894H9.65956V39.8812C9.6675 40.001 9.67355 40.1223 9.68111 40.2444C10.1308 48.7153 16.5034 53.7288 16.5034 53.7288C26.7709 63.7357 51.6324 76.3698 57.4096 79.2365C57.4905 79.2668 57.789 79.3643 57.9643 79.1428C57.9643 79.1428 58.0555 79.0736 58.0971 78.9493V78.6855C58.093 78.6704 58.085 78.6552 58.0775 78.6386C42.2565 44.0768 20.6144 17.8753 20.6144 17.8753ZM114.026 17.8753C114.026 17.8753 92.4479 43.9948 76.6339 78.4866L76.64 78.4846C76.64 78.4846 76.4532 78.8845 76.7552 79.1428C76.7552 79.1428 76.8453 79.2109 76.97 79.2384H77.1888C77.2281 79.2271 77.2703 79.212 77.3119 79.1837C83.2459 76.2385 107.915 63.6911 118.134 53.7304C118.134 53.7304 124.606 48.5335 124.945 40.1894C125.692 28.6003 114.026 17.8753 114.026 17.8753ZM133.448 52.1878C133.448 52.1878 98.2687 71.0669 80.0792 83.3363L80.0854 83.342C80.0854 83.342 79.7553 83.5582 79.8705 83.9456C79.8705 83.9456 80.0431 84.2581 80.2944 84.2581C86.8096 84.2695 111.463 84.2991 112.081 84.1838C112.081 84.1838 115.269 84.0565 119.208 82.5432C119.208 82.5432 127.978 79.7552 132.533 69.799C132.533 69.799 134.614 65.6359 134.644 59.7873V59.5394C134.629 57.2838 134.311 54.7869 133.448 52.1878ZM1.18275 52.2759C-2.01807 62.1848 2.29103 70.1692 2.29799 70.1821C6.78861 79.6704 15.3605 82.5454 15.3605 82.5454C19.318 84.1713 23.2765 84.2837 23.2765 84.2837C23.8946 84.3967 47.8916 84.295 54.3214 84.2648C54.5935 84.2628 54.7433 83.9892 54.7433 83.9892C54.7622 83.959 54.7788 83.9287 54.7863 83.9011V83.6532C54.733 83.4873 54.591 83.3702 54.591 83.3702L54.5951 83.3682C36.4147 71.1029 1.18275 52.2759 1.18275 52.2759ZM53.587 87.311L12.2023 88.7622C16.6903 96.7626 24.2486 102.98 32.1222 101.071C37.5558 99.7124 49.8652 91.1263 53.9288 88.225L53.9152 88.2137C54.2312 87.9299 54.1183 87.702 54.1183 87.702C54.0144 87.3305 53.5871 87.3308 53.5871 87.3308L53.587 87.311ZM80.9972 87.3412L80.993 87.3563C80.993 87.3563 80.6297 87.4024 80.5282 87.6746C80.5282 87.6746 80.4399 88.0465 80.6844 88.2312L80.6803 88.235C84.6425 91.0762 96.6536 99.4736 102.44 101.104C102.44 101.104 103.317 101.402 104.786 101.456H105.669C109.545 101.32 116.299 99.328 122.436 88.7837L80.9972 87.3412Z" fill="#CF0A2C"/>
</g>
<defs>
<clipPath id="clip0_7120_4594">
<rect width="134.646" height="136.921" fill="white"/>
</clipPath>
</defs>
</svg>
