<svg version="1.1" id="Layer_1" xmlns="http://www.w3.org/2000/svg" xmlns:xlink="http://www.w3.org/1999/xlink" x="0px" y="0px"
	 width="100%" viewBox="0 0 2016 2048" enable-background="new 0 0 2016 2048" xml:space="preserve">
<path fill="#000000" opacity="1.000000" stroke="none" 
	d="
M16.000000,2049.000000 
	C11.001885,2049.000000 6.003770,2049.000000 1.002828,2049.000000 
	C1.000000,1678.308472 1.000000,1307.616821 1.416103,936.343628 
	C2.881425,941.814819 3.730051,947.910706 5.017242,953.912476 
	C8.993802,972.453857 12.259512,991.208313 17.422764,1009.420349 
	C25.113346,1036.546875 37.681843,1061.697998 52.012516,1085.932495 
	C64.414635,1106.905762 78.672043,1126.588135 95.199623,1144.460571 
	C105.332924,1155.418335 116.127167,1165.860962 127.397194,1175.644897 
	C138.789490,1185.534912 150.531128,1195.272339 163.210068,1203.369385 
	C180.425201,1214.363159 198.367081,1224.345459 216.596237,1233.578979 
	C228.204910,1239.459106 240.655182,1244.029175 253.165741,1247.691650 
	C270.090027,1252.646362 287.300232,1256.893921 304.637695,1260.088745 
	C320.435089,1262.999634 336.554016,1265.614868 352.551910,1265.741089 
	C426.710846,1266.326660 500.877197,1266.130127 575.040405,1265.965088 
	C654.978333,1265.787231 734.915710,1265.322998 814.853516,1265.032959 
	C818.476257,1265.019897 821.645874,1264.323730 822.682739,1260.491455 
	C823.735901,1256.599365 823.244446,1252.654907 819.612183,1250.228638 
	C802.975830,1239.116211 786.371338,1227.946655 769.507019,1217.186890 
	C742.582275,1200.008179 715.502075,1183.071777 688.406677,1166.162598 
	C672.450378,1156.204956 656.378296,1146.430786 640.285156,1136.695068 
	C621.079224,1125.076172 601.817139,1113.549805 582.538940,1102.051025 
	C562.137817,1089.882568 541.735107,1077.715576 521.246460,1065.695435 
	C505.563629,1056.494751 489.726196,1047.558105 473.993958,1038.441162 
	C457.811615,1029.063232 441.729401,1019.511658 425.501709,1010.213440 
	C405.871857,998.966003 386.118042,987.935181 366.449829,976.754395 
	C347.667572,966.077271 328.971954,955.247070 310.152893,944.635498 
	C294.596283,935.863586 278.890472,927.356873 263.295166,918.653076 
	C241.209122,906.326965 219.205902,893.851868 197.086685,881.585754 
	C182.018188,873.229736 166.795792,865.151733 151.670700,856.897156 
	C123.029915,841.266357 94.396942,825.621216 65.787964,809.932312 
	C56.297298,804.727844 46.937405,799.284058 37.427856,794.115112 
	C31.413908,790.846252 25.233667,787.883301 18.841640,784.637695 
	C18.128679,786.120178 17.411356,787.210083 17.057259,788.407410 
	C10.313101,811.213196 4.757991,834.260864 2.902435,858.067139 
	C2.848691,858.756653 1.659657,859.357666 0.999985,860.000000 
	C1.000000,573.738037 1.000000,287.476044 1.000000,1.000000 
	C283.024872,1.000000 565.049805,1.000000 847.672607,1.400977 
	C847.923096,2.136169 847.617493,2.699243 847.222229,2.771439 
	C833.852051,5.213434 820.401123,7.269068 807.113220,10.092560 
	C788.403137,14.068186 769.671814,18.083124 751.208557,23.044863 
	C730.071533,28.725132 710.126709,37.542511 691.062866,48.392620 
	C673.741638,58.250927 657.432556,69.583366 642.754456,82.954628 
	C622.701904,101.221817 604.452759,121.286949 590.829468,144.914520 
	C582.166199,159.939713 574.217834,175.453735 567.072815,191.256744 
	C559.447266,208.122742 554.394226,225.969772 551.870667,244.372070 
	C549.952209,258.362640 547.540527,272.409943 547.259583,286.470184 
	C546.879333,305.495544 547.988403,324.577759 549.121216,343.596069 
	C549.793335,354.879333 550.895447,366.270477 553.293762,377.288910 
	C557.950989,398.685303 563.482239,419.898712 568.971924,441.104950 
	C577.019653,472.192780 588.211426,502.250427 600.122192,532.003845 
	C609.005981,554.195679 618.501709,576.171570 628.552979,597.859863 
	C642.071655,627.029907 655.891968,656.083252 670.493286,684.722412 
	C686.747620,716.603577 703.952515,748.002014 720.888611,779.532715 
	C728.481873,793.669373 736.222107,807.735779 744.262817,821.621521 
	C756.147766,842.146118 768.220337,862.565369 780.468079,882.875671 
	C795.853394,908.388977 811.290405,933.875671 827.083130,959.137573 
	C844.618896,987.187744 862.290344,1015.162109 880.434143,1042.820801 
	C900.564758,1073.508057 921.320618,1103.784790 941.734436,1134.286987 
	C944.314331,1138.141846 947.649841,1139.887451 952.112793,1138.835815 
	C956.677917,1137.760010 957.477478,1133.620239 957.888611,1129.964355 
	C959.451233,1116.067383 960.690796,1102.133301 961.985596,1088.207153 
	C963.357056,1073.455688 964.726624,1058.703247 965.964417,1043.940186 
	C967.383545,1027.014893 968.702576,1010.080872 969.979309,993.144226 
	C971.046082,978.994385 972.046082,964.838989 972.972473,950.679260 
	C974.040222,934.359497 975.030518,918.034424 975.986389,901.707703 
	C976.710815,889.335571 977.411499,876.960999 977.973328,864.580688 
	C978.724182,848.035461 979.343750,831.484131 979.993835,814.934509 
	C980.358093,805.662659 980.751221,796.390869 980.987732,787.115356 
	C981.385620,771.510010 981.994080,755.900574 981.938904,740.294922 
	C981.780579,695.520142 981.384705,650.745911 980.967651,605.972595 
	C980.853271,593.693054 980.422668,581.414124 979.983093,569.140503 
	C979.402161,552.921387 978.691406,536.706787 977.995605,520.492004 
	C977.356873,505.606049 976.695557,490.720886 975.976990,475.838654 
	C975.746155,471.058685 975.374268,466.282501 974.941406,461.515991 
	C973.661682,447.424255 972.293396,433.340576 971.009399,419.249237 
	C969.948486,407.606964 969.195312,395.931366 967.877869,384.319092 
	C966.139832,368.998932 963.992798,353.725037 962.004333,338.433472 
	C960.332520,325.577759 958.904114,312.682922 956.880432,299.882477 
	C954.530457,285.018677 951.869385,270.195282 948.946899,255.432816 
	C944.374451,232.336227 940.408936,209.060410 934.474426,186.307037 
	C926.478760,155.651062 917.765503,125.112503 907.635315,95.105865 
	C900.068298,72.691597 890.108276,51.050339 880.539001,29.362619 
	C876.203186,19.536074 870.230225,10.431886 865.000000,0.999989 
	C962.024902,1.000000 1059.049805,1.000000 1156.505127,1.357998 
	C1146.996582,21.123857 1135.615356,39.948563 1127.473755,60.083210 
	C1116.636230,86.885124 1107.896851,114.571205 1099.077515,142.140198 
	C1093.607666,159.238892 1089.201538,176.718338 1085.148926,194.219330 
	C1080.354492,214.924118 1076.265259,235.799530 1072.233887,256.671204 
	C1069.501831,270.817078 1067.243164,285.060425 1065.056519,299.303711 
	C1063.137939,311.799805 1061.617676,324.356964 1059.915894,336.886414 
	C1058.281982,348.917542 1056.466431,360.927216 1055.055176,372.984314 
	C1053.792603,383.769806 1053.024780,394.612305 1051.944092,405.420197 
	C1050.684082,418.019196 1049.192993,430.596161 1048.039185,443.204376 
	C1046.881958,455.848755 1045.872437,468.510620 1045.058228,481.181519 
	C1043.913330,498.995605 1042.887817,516.819397 1042.034790,534.649658 
	C1041.210938,551.863953 1040.559570,569.088562 1040.038696,586.314819 
	C1039.551636,602.419983 1039.010132,618.534424 1039.065308,634.642822 
	C1039.194580,672.412048 1039.613525,710.180603 1040.031494,747.948120 
	C1040.159912,759.561340 1040.639771,771.171082 1041.000854,782.781128 
	C1041.650513,803.665161 1042.244263,824.551453 1043.032471,845.430359 
	C1043.519165,858.322266 1044.297974,871.203430 1044.988892,884.087158 
	C1045.971436,902.409729 1047.000488,920.729797 1047.997192,939.051636 
	C1048.680054,951.603638 1049.318848,964.158020 1050.024414,976.708679 
	C1050.302246,981.651672 1050.663696,986.591064 1051.064087,991.525818 
	C1052.356567,1007.458740 1053.696289,1023.387878 1054.994873,1039.320312 
	C1055.718506,1048.198486 1056.298096,1057.089478 1057.118408,1065.958374 
	C1058.330078,1079.060181 1059.669922,1092.150635 1061.009277,1105.240234 
	C1061.962036,1114.553467 1062.728027,1123.902100 1064.211060,1133.133057 
	C1064.556274,1135.281250 1067.148682,1137.980469 1069.290527,1138.707275 
	C1072.264771,1139.716553 1075.740845,1139.403198 1078.046509,1136.015503 
	C1082.563599,1129.378540 1087.523926,1123.039062 1091.942505,1116.339966 
	C1113.483887,1083.680420 1135.094360,1051.063843 1156.315918,1018.196533 
	C1174.988770,989.276611 1193.366821,960.161621 1211.527954,930.917114 
	C1227.929199,904.506714 1244.131348,877.964172 1259.920410,851.184509 
	C1274.961060,825.674194 1289.559204,799.896301 1303.967896,774.022217 
	C1315.689575,752.973511 1327.077393,731.730042 1338.181641,710.348633 
	C1348.767334,689.965698 1359.131104,669.452637 1368.985596,648.708557 
	C1382.571045,620.110962 1395.953613,591.404846 1408.748901,562.447388 
	C1422.965332,530.272827 1435.438965,497.392395 1445.957886,463.799896 
	C1455.450806,433.483429 1463.895386,402.908600 1468.037720,371.321167 
	C1470.151489,355.201935 1472.544922,339.091644 1473.817261,322.899139 
	C1474.731934,311.258026 1474.259644,299.480225 1473.927002,287.777008 
	C1473.622192,277.050446 1473.373657,266.240479 1471.832520,255.651794 
	C1469.953857,242.744827 1467.388062,229.858139 1463.980835,217.270920 
	C1457.859009,194.655960 1447.800781,173.625046 1436.087158,153.383179 
	C1424.174805,132.798035 1409.958374,113.869507 1393.249512,97.021965 
	C1383.177979,86.866829 1372.188599,77.520500 1360.953979,68.642776 
	C1341.906616,53.591137 1320.687988,42.114468 1298.213867,32.962036 
	C1280.427002,25.718435 1262.067017,20.401749 1243.249146,16.636505 
	C1222.072266,12.399231 1200.878784,8.243839 1179.720581,3.915512 
	C1177.059570,3.371165 1174.569336,1.992245 1172.000000,1.000000 
	C1453.595215,1.000000 1735.190430,1.000000 2017.000000,1.000000 
	C2017.000000,277.691528 2017.000000,554.383118 2016.600708,831.674194 
	C2014.799316,826.476135 2013.472168,820.659180 2011.978882,814.885254 
	C2009.253540,804.347473 2006.429688,793.835205 2003.469482,782.641479 
	C1995.210449,787.150330 1987.798462,791.208008 1980.376221,795.246765 
	C1957.754150,807.556274 1935.093872,819.796326 1912.512451,832.179993 
	C1886.345215,846.529968 1860.232544,860.979675 1834.121338,875.431580 
	C1813.350708,886.927673 1792.591553,898.445129 1771.874634,910.037720 
	C1744.999756,925.076111 1718.166260,940.188049 1691.326050,955.288330 
	C1670.781128,966.846802 1650.175293,978.300293 1629.737183,990.045166 
	C1602.168945,1005.887390 1574.746704,1021.983765 1547.239380,1037.932495 
	C1532.647705,1046.392822 1517.936768,1054.649780 1503.408936,1063.217651 
	C1484.088013,1074.612183 1464.881470,1086.200806 1445.647217,1097.741821 
	C1424.441040,1110.465942 1403.189697,1123.116699 1382.083374,1136.004639 
	C1352.167969,1154.271729 1322.218506,1172.490601 1292.564331,1191.175659 
	C1268.326050,1206.448242 1244.468872,1222.328125 1220.507568,1238.037476 
	C1213.795410,1242.437988 1207.037720,1246.849609 1200.818237,1251.894043 
	C1196.503784,1255.393555 1196.936646,1260.573242 1201.361450,1263.655884 
	C1203.035278,1264.822144 1205.681274,1264.948364 1207.884277,1264.949219 
	C1348.544678,1265.005371 1489.205078,1265.033081 1629.865479,1264.955811 
	C1646.642090,1264.946655 1663.481079,1265.121216 1680.177734,1263.788696 
	C1697.968506,1262.369019 1715.938477,1260.617310 1733.274902,1256.608765 
	C1770.711426,1247.953247 1806.903809,1235.554688 1840.101196,1215.501465 
	C1861.955444,1202.300171 1882.392822,1187.215332 1901.234253,1170.070801 
	C1910.557739,1161.587158 1919.332397,1152.382324 1927.503906,1142.779297 
	C1938.443726,1129.923096 1949.281860,1116.863892 1958.854858,1102.988770 
	C1972.912231,1082.613770 1984.694458,1060.839722 1994.041260,1037.836670 
	C2003.807007,1013.802795 2010.747559,988.973267 2015.075073,963.397949 
	C2015.224365,962.515381 2016.336670,961.795715 2017.000000,961.000061 
	C2017.000000,1323.666626 2017.000000,1686.333374 2017.000000,2049.000000 
	C2014.637451,2049.000000 2012.305054,2049.000000 2009.486328,2048.531250 
	C2009.000000,1940.258667 2009.000122,1832.454468 2008.999146,1724.650391 
	C2008.999146,1722.817627 2008.905273,1720.980713 2008.996460,1719.152832 
	C2009.172852,1715.616577 2007.695068,1713.977051 2004.023071,1713.990234 
	C1984.695312,1714.059570 1965.367065,1714.058716 1946.039307,1713.989136 
	C1942.416260,1713.976074 1940.823486,1715.504883 1941.004272,1719.090454 
	C1941.096558,1720.918213 1941.000854,1722.755127 1941.000854,1724.587891 
	C1940.999756,1832.725220 1941.000000,1940.862671 1941.000000,2049.000000 
	C1914.641724,2049.000000 1888.283569,2049.000000 1861.462036,2048.531250 
	C1860.997925,2030.896606 1861.002441,2013.730469 1860.994141,1996.564331 
	C1860.989990,1988.018799 1860.979248,1988.004272 1852.423340,1988.003418 
	C1795.925293,1987.998413 1739.427246,1988.003418 1682.929199,1987.996094 
	C1674.967651,1987.994995 1674.927612,1987.951294 1674.923584,1979.839966 
	C1674.912720,1957.840698 1674.910767,1935.841553 1674.924927,1913.842285 
	C1674.929932,1906.130615 1675.053955,1906.007080 1682.747070,1906.004639 
	C1718.745850,1905.993652 1754.744507,1906.006348 1790.743286,1905.989746 
	C1797.793213,1905.986572 1797.982910,1905.782837 1797.992310,1898.621582 
	C1798.012695,1882.955444 1798.010620,1867.289307 1797.993896,1851.623169 
	C1797.985962,1844.141846 1797.865112,1844.010498 1790.489014,1844.007690 
	C1754.323608,1843.993652 1718.158081,1844.008789 1681.992676,1843.989502 
	C1675.261841,1843.985840 1674.941895,1843.660889 1674.931030,1836.903320 
	C1674.902832,1819.570557 1674.915527,1802.237915 1674.921265,1784.905151 
	C1674.924072,1776.016357 1674.933105,1776.003662 1683.684814,1776.002808 
	C1738.182983,1775.997559 1792.681030,1776.005493 1847.179199,1775.988159 
	C1853.623169,1775.986084 1853.974854,1775.624634 1853.987793,1769.191162 
	C1854.018677,1753.691650 1854.003662,1738.192261 1853.998291,1722.692749 
	C1853.995239,1714.012085 1853.987305,1714.002075 1845.061890,1714.001709 
	C1768.397827,1713.999023 1691.733887,1714.000244 1615.069824,1714.001953 
	C1613.570068,1714.001953 1612.068481,1714.075562 1610.570801,1714.025146 
	C1607.447021,1713.920288 1605.924438,1715.346313 1606.024292,1718.512207 
	C1606.076782,1720.176636 1605.999878,1721.844727 1605.999878,1723.511230 
	C1605.998657,1832.007446 1605.999512,1940.503784 1606.000000,2049.000000 
	C1549.975098,2049.000000 1493.950195,2049.000000 1437.492065,2048.613037 
	C1439.306519,2041.616089 1441.524658,2034.995728 1443.806519,2028.397583 
	C1457.896851,1987.656860 1472.011963,1946.924805 1486.097046,1906.182251 
	C1493.169678,1885.723633 1500.136597,1865.228149 1507.256958,1844.786133 
	C1521.659058,1803.439331 1536.155640,1762.125488 1550.552002,1720.776733 
	C1552.637329,1714.787476 1552.043701,1714.032959 1545.805664,1714.020142 
	C1526.305664,1713.979614 1506.804321,1714.135498 1487.306885,1713.909058 
	C1482.632202,1713.854736 1480.402710,1715.583740 1479.086426,1719.924927 
	C1474.885742,1733.779297 1470.454712,1747.564697 1466.024292,1761.348267 
	C1456.140015,1792.098145 1446.223267,1822.837402 1436.279907,1853.568115 
	C1427.463013,1880.817383 1418.593628,1908.049683 1409.742554,1935.287842 
	C1409.083008,1937.317627 1408.385254,1939.335205 1407.248047,1942.718750 
	C1406.077637,1939.436035 1405.435303,1937.744995 1404.868530,1936.028931 
	C1394.217285,1903.775391 1383.584595,1871.515503 1372.927734,1839.263794 
	C1359.763062,1799.422607 1346.570435,1759.590454 1333.423340,1719.743408 
	C1332.389526,1716.609985 1331.466309,1713.914185 1327.202759,1713.957275 
	C1311.371094,1714.117310 1295.536621,1714.076416 1279.703979,1713.978394 
	C1276.257446,1713.957031 1274.566650,1715.546631 1273.623901,1718.650757 
	C1271.642212,1725.175659 1269.566895,1731.673462 1267.433105,1738.150513 
	C1256.126953,1772.470337 1244.818481,1806.789673 1233.456177,1841.090820 
	C1224.447754,1868.285645 1215.363770,1895.455444 1206.305420,1922.633667 
	C1204.228394,1928.865356 1202.119019,1935.086304 1199.596069,1942.585571 
	C1198.417603,1939.359985 1197.624146,1937.402100 1196.980957,1935.396118 
	C1183.260010,1892.595459 1169.572266,1849.783936 1155.842407,1806.985962 
	C1146.488281,1777.827148 1137.036987,1748.699341 1127.747070,1719.520142 
	C1126.507324,1715.625854 1124.555542,1713.887573 1120.255737,1713.925781 
	C1099.757324,1714.107910 1079.256470,1713.979370 1058.756592,1714.026123 
	C1053.234985,1714.038818 1052.741455,1714.709229 1054.460449,1719.816650 
	C1057.167603,1727.859863 1060.021118,1735.853882 1062.813354,1743.868530 
	C1075.244385,1779.547729 1087.686523,1815.223022 1100.104004,1850.906982 
	C1113.945801,1890.684326 1127.762085,1930.470581 1141.595581,1970.250854 
	C1150.724609,1996.502563 1159.864868,2022.750366 1169.000000,2049.000000 
	C1139.308472,2049.000000 1109.616821,2049.000000 1079.309814,2048.684570 
	C1063.299194,2013.533203 1047.840454,1978.725586 1032.527344,1943.853882 
	C1017.746460,1910.193970 1003.179749,1876.440063 988.402527,1842.778442 
	C970.282654,1801.502808 952.016541,1760.291260 933.898254,1719.014893 
	C932.348389,1715.484253 930.103455,1713.945923 926.249146,1713.969360 
	C909.422668,1714.071777 892.594666,1714.090332 875.768677,1713.955200 
	C871.997986,1713.924805 869.983948,1715.591675 868.563477,1718.835205 
	C859.888977,1738.642700 851.122986,1758.410156 842.417114,1778.203979 
	C823.061035,1822.212036 803.727295,1866.229980 784.374512,1910.239624 
	C776.204773,1928.818237 768.033752,1947.396606 759.820618,1965.956177 
	C747.566895,1993.646118 735.275391,2021.319580 723.000000,2049.000000 
	C681.975098,2049.000000 640.950195,2049.000000 599.596191,2048.679932 
	C600.534424,2047.617798 601.721680,2046.648804 603.081421,2046.169067 
	C616.523071,2041.425903 628.868713,2034.821045 640.157654,2026.002930 
	C655.631897,2013.915161 666.709656,1998.473877 674.838684,1980.958984 
	C686.563232,1955.697144 689.655518,1928.501465 689.854553,1901.105103 
	C690.291504,1840.945068 689.997864,1780.779785 689.980164,1720.616577 
	C689.978333,1714.411865 689.595337,1714.027710 683.494873,1714.015869 
	C665.329346,1713.980347 647.163635,1713.993530 628.998047,1714.003662 
	C621.024597,1714.008057 621.004700,1714.025635 621.003845,1722.132690 
	C620.997620,1780.462646 621.168030,1838.793457 620.860718,1897.121826 
	C620.797974,1909.031006 619.939941,1921.117920 617.728760,1932.797363 
	C612.576660,1960.010620 597.427917,1979.042358 569.806763,1986.509644 
	C557.795532,1989.756836 545.505249,1990.254150 533.222412,1988.878906 
	C515.304565,1986.872925 499.211060,1980.631226 487.304291,1966.389404 
	C474.314331,1950.851929 469.278381,1932.191895 469.152618,1912.533203 
	C468.745331,1848.872803 469.003326,1785.208252 468.993317,1721.545288 
	C468.992157,1714.129639 468.868317,1714.013672 461.416016,1714.006470 
	C443.917023,1713.989502 426.418060,1713.996704 408.919067,1714.001587 
	C400.014740,1714.004028 400.003479,1714.011353 400.002960,1722.714722 
	C399.999268,1783.877808 399.967743,1845.041016 400.041901,1906.204102 
	C400.051178,1913.844849 400.334076,1921.510498 400.997772,1929.120361 
	C402.941254,1951.404785 408.391266,1972.692749 419.617065,1992.278320 
	C432.706940,2015.116089 451.150452,2031.920410 475.383820,2042.350342 
	C480.018036,2044.344971 484.466064,2046.772339 489.000000,2049.000000 
	C428.308441,2049.000000 367.616852,2049.000000 306.462646,2048.531250 
	C305.999664,1939.249268 306.001556,1830.435791 305.994110,1721.622314 
	C305.993591,1714.138550 305.864716,1714.012695 298.494598,1714.005859 
	C280.497864,1713.989014 262.501129,1713.989014 244.504395,1714.005737 
	C237.136337,1714.012695 237.010925,1714.137329 237.008713,1721.624512 
	C236.996811,1761.783936 237.010162,1801.943237 236.990784,1842.102661 
	C236.987640,1848.622681 236.641800,1848.984375 230.268280,1848.987061 
	C184.110001,1849.006470 137.951706,1849.005859 91.793434,1848.987671 
	C85.375710,1848.985107 85.019562,1848.621948 85.014244,1842.162354 
	C84.990898,1813.834106 85.002724,1785.505981 85.001617,1757.177734 
	C85.001152,1745.179932 85.018585,1733.182129 84.992493,1721.184326 
	C84.977531,1714.302246 84.717339,1714.052124 78.057793,1714.006836 
	C73.892075,1713.978638 69.726006,1713.999146 65.560097,1714.000122 
	C50.896111,1714.003540 36.231449,1714.086792 21.568581,1713.960693 
	C17.497314,1713.925781 15.678044,1715.481812 15.993107,1719.561401 
	C16.108227,1721.051880 15.999761,1722.559326 15.999756,1724.058960 
	C15.999425,1832.372681 15.999737,1940.686279 16.000000,2049.000000 
M1561.510010,468.067169 
	C1561.099243,468.777588 1560.735352,469.520264 1560.271240,470.193817 
	C1544.110474,493.642059 1527.672485,516.904724 1511.836548,540.570129 
	C1490.341919,572.692322 1469.150269,605.020752 1448.128540,637.455017 
	C1433.712891,659.697144 1419.572632,682.126221 1405.731079,704.730042 
	C1386.916504,735.455078 1368.349121,766.334595 1349.966675,797.320496 
	C1334.085083,824.090576 1318.389282,850.976379 1303.022705,878.044617 
	C1290.006958,900.971741 1277.412354,924.143066 1264.936523,947.370239 
	C1250.867188,973.564026 1236.861938,999.799622 1223.343750,1026.280029 
	C1210.858154,1050.737793 1199.014893,1075.524414 1186.962769,1100.202393 
	C1177.952393,1118.652222 1168.962402,1137.113281 1160.160767,1155.663208 
	C1156.437134,1163.510864 1152.918579,1171.490112 1149.969116,1179.648926 
	C1149.159668,1181.887939 1149.892090,1185.678955 1151.407349,1187.552734 
	C1154.391602,1191.243286 1158.737061,1190.692993 1162.733276,1188.653809 
	C1175.766602,1182.003784 1188.791626,1175.336914 1201.793457,1168.625610 
	C1221.213257,1158.601318 1240.673462,1148.652954 1260.001465,1138.454468 
	C1284.393921,1125.583618 1308.750732,1112.641113 1332.974976,1099.457397 
	C1357.451172,1086.136597 1381.890015,1072.734619 1406.083374,1058.910156 
	C1434.117432,1042.891113 1462.025269,1026.637695 1489.695679,1009.999878 
	C1519.994507,991.781677 1550.260742,973.475891 1579.977051,954.332336 
	C1604.902100,938.275269 1629.295654,921.349731 1653.409912,904.089661 
	C1677.365479,886.942932 1701.135498,869.469299 1724.128418,851.066406 
	C1742.247803,836.564026 1759.536865,820.926941 1776.305542,804.865540 
	C1789.432983,792.291565 1801.795654,778.792480 1813.427734,764.813904 
	C1830.833496,743.896667 1844.171631,720.324280 1854.893066,695.325928 
	C1867.350586,666.279114 1874.136230,635.823425 1875.873779,604.353882 
	C1876.979492,584.328613 1876.234253,564.227234 1872.836548,544.419434 
	C1869.020386,522.171509 1863.097412,500.480499 1855.251709,479.219543 
	C1843.051025,446.157776 1827.048706,415.066071 1807.702515,385.784180 
	C1794.873535,366.366730 1780.645142,347.854401 1766.625488,329.251587 
	C1759.705200,320.068970 1752.062866,311.397278 1744.346802,302.856079 
	C1734.360840,291.802307 1724.027100,281.059143 1713.642334,270.377441 
	C1712.964600,269.680328 1709.805054,270.036285 1709.094238,270.930908 
	C1693.784790,290.199249 1678.546753,309.527313 1663.534912,329.028412 
	C1651.184448,345.072205 1639.055664,361.289124 1626.992554,377.550751 
	C1615.004150,393.711548 1603.152710,409.975159 1591.367188,426.284760 
	C1581.482910,439.963470 1571.780396,453.773346 1561.510010,468.067169 
M780.910095,992.649536 
	C776.599731,984.729858 772.300903,976.803833 767.976868,968.891602 
	C752.098022,939.835510 736.257996,910.758057 720.307983,881.741028 
	C711.229919,865.225891 702.197388,848.678528 692.732300,832.384949 
	C679.004700,808.753479 665.052551,785.249023 650.922791,761.855591 
	C635.771973,736.771729 620.539978,711.730774 604.917358,686.939514 
	C584.128418,653.949951 563.294800,620.977356 541.803650,588.444519 
	C518.973145,553.884277 495.389801,519.820496 472.056396,485.593658 
	C462.362793,471.374542 452.676117,457.142334 442.610870,443.186798 
	C426.996277,421.537048 411.093597,400.094513 395.249603,378.610931 
	C383.877350,363.190796 372.545807,347.737061 360.932739,332.499054 
	C348.399567,316.053711 335.605560,299.805969 322.826843,283.549469 
	C318.806335,278.434753 314.467987,273.569916 309.369995,267.515869 
	C293.244049,285.897156 277.354004,303.130096 262.495117,321.210419 
	C249.401169,337.143158 236.944809,353.664795 225.166946,370.594299 
	C215.254318,384.842743 206.099899,399.709930 197.743713,414.925873 
	C188.189087,432.324036 179.184082,450.102020 171.218582,468.275269 
	C161.083389,491.398773 153.517319,515.504272 149.370178,540.485779 
	C147.355408,552.622375 145.914688,564.907654 145.169693,577.183655 
	C144.630356,586.070862 145.259323,595.091064 146.087677,603.984924 
	C147.427505,618.370300 148.208252,632.951477 151.270126,647.004395 
	C158.656723,680.906189 172.198715,712.464172 191.135971,741.589600 
	C206.298889,764.910217 223.820984,786.231995 244.937790,804.522949 
	C256.173645,814.255188 266.783478,824.711121 278.036896,834.422058 
	C291.488831,846.030273 304.913483,857.739502 319.089600,868.423645 
	C343.311920,886.679260 367.762695,904.676758 392.764130,921.840820 
	C417.744812,938.990601 443.347961,955.255981 468.993042,971.409302 
	C494.203308,987.288696 519.703796,1002.716187 545.270996,1018.017700 
	C570.687622,1033.229004 596.193115,1048.305176 621.941101,1062.945679 
	C647.283875,1077.355835 672.935791,1091.225464 698.535278,1105.179443 
	C717.102112,1115.299927 735.748657,1125.278076 754.462036,1135.125122 
	C774.662048,1145.754395 794.934753,1156.248291 815.263489,1166.629395 
	C830.362549,1174.339966 845.601013,1181.777466 860.778870,1189.333618 
	C864.401489,1191.136963 867.829590,1191.844360 871.115173,1188.431274 
	C874.094910,1185.335815 873.351929,1182.100830 871.922058,1178.807861 
	C869.382874,1172.960083 866.792480,1167.131836 864.085938,1161.359985 
	C855.102173,1142.200562 846.392700,1122.902832 836.964050,1103.963745 
	C818.558472,1066.992798 799.737549,1030.228516 780.910095,992.649536 
M1554.228394,1322.004639 
	C1544.456177,1321.670776 1534.683594,1321.343262 1524.911743,1321.001221 
	C1515.637939,1320.676636 1506.365234,1320.323242 1497.091187,1320.007080 
	C1477.212891,1319.329590 1457.333740,1318.680176 1437.455688,1317.993896 
	C1428.854492,1317.697021 1420.256592,1317.307739 1411.655396,1317.012695 
	C1391.613037,1316.324951 1371.569092,1315.677246 1351.526367,1314.996338 
	C1342.420166,1314.686890 1333.317139,1314.278320 1324.209595,1314.018677 
	C1310.603882,1313.630859 1296.993896,1313.388672 1283.389160,1312.972168 
	C1278.278564,1312.815674 1273.181641,1312.172974 1268.071411,1312.050049 
	C1250.638062,1311.630249 1233.201782,1311.320801 1215.765869,1311.021851 
	C1211.730713,1310.952759 1208.557251,1313.338379 1208.374268,1316.921631 
	C1208.223145,1319.881592 1209.652100,1324.139648 1211.885132,1325.802734 
	C1224.486206,1335.187500 1237.505493,1344.014893 1250.450317,1352.933350 
	C1271.745117,1367.604614 1292.830933,1382.601074 1314.485107,1396.723755 
	C1339.973755,1413.347290 1365.732422,1429.588989 1391.822144,1445.250000 
	C1417.217285,1460.493896 1442.937744,1475.240112 1468.987427,1489.332153 
	C1483.217773,1497.030396 1498.400513,1502.978027 1513.198975,1509.614136 
	C1543.729858,1523.305420 1575.577271,1525.646484 1608.396362,1521.140747 
	C1632.885254,1517.778442 1655.811035,1509.809448 1677.809570,1498.993164 
	C1703.021606,1486.597046 1725.682007,1470.270386 1746.096191,1451.125000 
	C1759.495239,1438.558594 1772.432007,1425.274780 1783.988037,1411.024902 
	C1797.993042,1393.755127 1810.496216,1375.249023 1823.299072,1357.031616 
	C1828.726074,1349.309448 1833.261353,1340.960693 1838.410034,1332.557373 
	C1829.924072,1332.005737 1822.235962,1331.329956 1814.533203,1331.039307 
	C1794.159424,1330.270386 1773.778687,1329.681152 1753.401733,1328.993774 
	C1744.628418,1328.697998 1735.857910,1328.316650 1727.084961,1328.008423 
	C1707.704834,1327.327759 1688.323608,1326.672363 1668.943115,1325.998779 
	C1659.672241,1325.676636 1650.403198,1325.284424 1641.130737,1325.016724 
	C1627.858154,1324.633301 1614.583252,1324.329834 1601.309082,1324.001221 
	C1587.540039,1323.660278 1573.770020,1323.358643 1560.002808,1322.957764 
	C1558.387329,1322.910767 1556.786987,1322.346680 1554.228394,1322.004639 
M811.595520,1322.919800 
	C815.198425,1316.646118 813.590820,1312.461426 806.834717,1311.038574 
	C803.964417,1310.433960 800.971008,1309.946777 798.062622,1310.073364 
	C786.671448,1310.569824 775.298462,1311.489380 763.906677,1311.961060 
	C744.694885,1312.756714 725.473633,1313.320923 706.257019,1314.001953 
	C687.872986,1314.653564 669.490417,1315.347534 651.106079,1315.990479 
	C631.391296,1316.679932 611.674866,1317.325684 591.959534,1318.001465 
	C582.685730,1318.319458 573.413086,1318.671143 564.139404,1318.993408 
	C544.758118,1319.667114 525.376221,1320.324097 505.995117,1321.002319 
	C497.053802,1321.315308 488.114288,1321.678711 479.172974,1321.991699 
	C459.793671,1322.670410 440.413635,1323.327148 421.034149,1324.000732 
	C411.757568,1324.323120 402.481781,1324.667603 393.205353,1324.994263 
	C374.155945,1325.665405 355.106293,1326.329224 336.056885,1327.000000 
	C326.781921,1327.326660 317.507629,1327.672852 308.232452,1327.993042 
	C288.683197,1328.667847 269.136047,1329.418823 249.583328,1329.972656 
	C233.146484,1330.438110 216.700272,1330.575439 200.263992,1331.056030 
	C194.921997,1331.212036 189.598267,1331.992676 182.838547,1332.619995 
	C191.520935,1346.142578 199.736786,1358.898560 207.912140,1371.680542 
	C220.064636,1390.680664 233.981003,1408.407959 249.513763,1424.632446 
	C263.914215,1439.674194 279.072845,1454.180298 295.189880,1467.339600 
	C314.634094,1483.215576 336.286407,1495.986328 359.513641,1505.857666 
	C383.291016,1515.963013 408.080902,1521.920410 433.864624,1522.822876 
	C444.709106,1523.202393 455.699921,1522.236816 466.486816,1520.829712 
	C488.609467,1517.943726 509.276947,1509.973145 529.144348,1500.248657 
	C549.648682,1490.212524 569.818054,1479.457520 589.838867,1468.478882 
	C605.298645,1460.001221 620.463745,1450.953247 635.469604,1441.688599 
	C655.936890,1429.052124 676.360229,1416.317261 696.383972,1402.995605 
	C726.663513,1382.850952 756.638428,1362.245850 786.618408,1341.655273 
	C794.989502,1335.905884 802.923157,1329.519531 811.595520,1322.919800 
z"/>
<path fill="#CF0A2C" opacity="1.000000" stroke="none" 
	d="
M1171.533936,1.000000 
	C1174.569336,1.992245 1177.059570,3.371165 1179.720581,3.915512 
	C1200.878784,8.243839 1222.072266,12.399231 1243.249146,16.636505 
	C1262.067017,20.401749 1280.427002,25.718435 1298.213867,32.962036 
	C1320.687988,42.114468 1341.906616,53.591137 1360.953979,68.642776 
	C1372.188599,77.520500 1383.177979,86.866829 1393.249512,97.021965 
	C1409.958374,113.869507 1424.174805,132.798035 1436.087158,153.383179 
	C1447.800781,173.625046 1457.859009,194.655960 1463.980835,217.270920 
	C1467.388062,229.858139 1469.953857,242.744827 1471.832520,255.651794 
	C1473.373657,266.240479 1473.622192,277.050446 1473.927002,287.777008 
	C1474.259644,299.480225 1474.731934,311.258026 1473.817261,322.899139 
	C1472.544922,339.091644 1470.151489,355.201935 1468.037720,371.321167 
	C1463.895386,402.908600 1455.450806,433.483429 1445.957886,463.799896 
	C1435.438965,497.392395 1422.965332,530.272827 1408.748901,562.447388 
	C1395.953613,591.404846 1382.571045,620.110962 1368.985596,648.708557 
	C1359.131104,669.452637 1348.767334,689.965698 1338.181641,710.348633 
	C1327.077393,731.730042 1315.689575,752.973511 1303.967896,774.022217 
	C1289.559204,799.896301 1274.961060,825.674194 1259.920410,851.184509 
	C1244.131348,877.964172 1227.929199,904.506714 1211.527954,930.917114 
	C1193.366821,960.161621 1174.988770,989.276611 1156.315918,1018.196533 
	C1135.094360,1051.063843 1113.483887,1083.680420 1091.942505,1116.339966 
	C1087.523926,1123.039062 1082.563599,1129.378540 1078.046509,1136.015503 
	C1075.740845,1139.403198 1072.264771,1139.716553 1069.290527,1138.707275 
	C1067.148682,1137.980469 1064.556274,1135.281250 1064.211060,1133.133057 
	C1062.728027,1123.902100 1061.962036,1114.553467 1061.009277,1105.240234 
	C1059.669922,1092.150635 1058.330078,1079.060181 1057.118408,1065.958374 
	C1056.298096,1057.089478 1055.718506,1048.198486 1054.994873,1039.320312 
	C1053.696289,1023.387878 1052.356567,1007.458740 1051.064087,991.525818 
	C1050.663696,986.591064 1050.302246,981.651672 1050.024414,976.708679 
	C1049.318848,964.158020 1048.680054,951.603638 1047.997192,939.051636 
	C1047.000488,920.729797 1045.971436,902.409729 1044.988892,884.087158 
	C1044.297974,871.203430 1043.519165,858.322266 1043.032471,845.430359 
	C1042.244263,824.551453 1041.650513,803.665161 1041.000854,782.781128 
	C1040.639771,771.171082 1040.159912,759.561340 1040.031494,747.948120 
	C1039.613525,710.180603 1039.194580,672.412048 1039.065308,634.642822 
	C1039.010132,618.534424 1039.551636,602.419983 1040.038696,586.314819 
	C1040.559570,569.088562 1041.210938,551.863953 1042.034790,534.649658 
	C1042.887817,516.819397 1043.913330,498.995605 1045.058228,481.181519 
	C1045.872437,468.510620 1046.881958,455.848755 1048.039185,443.204376 
	C1049.192993,430.596161 1050.684082,418.019196 1051.944092,405.420197 
	C1053.024780,394.612305 1053.792603,383.769806 1055.055176,372.984314 
	C1056.466431,360.927216 1058.281982,348.917542 1059.915894,336.886414 
	C1061.617676,324.356964 1063.137939,311.799805 1065.056519,299.303711 
	C1067.243164,285.060425 1069.501831,270.817078 1072.233887,256.671204 
	C1076.265259,235.799530 1080.354492,214.924118 1085.148926,194.219330 
	C1089.201538,176.718338 1093.607666,159.238892 1099.077515,142.140198 
	C1107.896851,114.571205 1116.636230,86.885124 1127.473755,60.083210 
	C1135.615356,39.948563 1146.996582,21.123857 1156.967773,1.357998 
	C1161.689331,1.000000 1166.378540,1.000000 1171.533936,1.000000 
z"/>
<path fill="#CF0A2C" opacity="1.000000" stroke="none" 
	d="
M864.532471,0.999989 
	C870.230225,10.431886 876.203186,19.536074 880.539001,29.362619 
	C890.108276,51.050339 900.068298,72.691597 907.635315,95.105865 
	C917.765503,125.112503 926.478760,155.651062 934.474426,186.307037 
	C940.408936,209.060410 944.374451,232.336227 948.946899,255.432816 
	C951.869385,270.195282 954.530457,285.018677 956.880432,299.882477 
	C958.904114,312.682922 960.332520,325.577759 962.004333,338.433472 
	C963.992798,353.725037 966.139832,368.998932 967.877869,384.319092 
	C969.195312,395.931366 969.948486,407.606964 971.009399,419.249237 
	C972.293396,433.340576 973.661682,447.424255 974.941406,461.515991 
	C975.374268,466.282501 975.746155,471.058685 975.976990,475.838654 
	C976.695557,490.720886 977.356873,505.606049 977.995605,520.492004 
	C978.691406,536.706787 979.402161,552.921387 979.983093,569.140503 
	C980.422668,581.414124 980.853271,593.693054 980.967651,605.972595 
	C981.384705,650.745911 981.780579,695.520142 981.938904,740.294922 
	C981.994080,755.900574 981.385620,771.510010 980.987732,787.115356 
	C980.751221,796.390869 980.358093,805.662659 979.993835,814.934509 
	C979.343750,831.484131 978.724182,848.035461 977.973328,864.580688 
	C977.411499,876.960999 976.710815,889.335571 975.986389,901.707703 
	C975.030518,918.034424 974.040222,934.359497 972.972473,950.679260 
	C972.046082,964.838989 971.046082,978.994385 969.979309,993.144226 
	C968.702576,1010.080872 967.383545,1027.014893 965.964417,1043.940186 
	C964.726624,1058.703247 963.357056,1073.455688 961.985596,1088.207153 
	C960.690796,1102.133301 959.451233,1116.067383 957.888611,1129.964355 
	C957.477478,1133.620239 956.677917,1137.760010 952.112793,1138.835815 
	C947.649841,1139.887451 944.314331,1138.141846 941.734436,1134.286987 
	C921.320618,1103.784790 900.564758,1073.508057 880.434143,1042.820801 
	C862.290344,1015.162109 844.618896,987.187744 827.083130,959.137573 
	C811.290405,933.875671 795.853394,908.388977 780.468079,882.875671 
	C768.220337,862.565369 756.147766,842.146118 744.262817,821.621521 
	C736.222107,807.735779 728.481873,793.669373 720.888611,779.532715 
	C703.952515,748.002014 686.747620,716.603577 670.493286,684.722412 
	C655.891968,656.083252 642.071655,627.029907 628.552979,597.859863 
	C618.501709,576.171570 609.005981,554.195679 600.122192,532.003845 
	C588.211426,502.250427 577.019653,472.192780 568.971924,441.104950 
	C563.482239,419.898712 557.950989,398.685303 553.293762,377.288910 
	C550.895447,366.270477 549.793335,354.879333 549.121216,343.596069 
	C547.988403,324.577759 546.879333,305.495544 547.259583,286.470184 
	C547.540527,272.409943 549.952209,258.362640 551.870667,244.372070 
	C554.394226,225.969772 559.447266,208.122742 567.072815,191.256744 
	C574.217834,175.453735 582.166199,159.939713 590.829468,144.914520 
	C604.452759,121.286949 622.701904,101.221817 642.754456,82.954628 
	C657.432556,69.583366 673.741638,58.250927 691.062866,48.392620 
	C710.126709,37.542511 730.071533,28.725132 751.208557,23.044863 
	C769.671814,18.083124 788.403137,14.068186 807.113220,10.092560 
	C820.401123,7.269068 833.852051,5.213434 847.222229,2.771439 
	C847.617493,2.699243 847.923096,2.136169 848.135254,1.400977 
	C853.354919,1.000000 858.709900,1.000000 864.532471,0.999989 
z"/>
<path fill="#CF0A2C" opacity="1.000000" stroke="none" 
	d="
M0.999985,860.468628 
	C1.659657,859.357666 2.848691,858.756653 2.902435,858.067139 
	C4.757991,834.260864 10.313101,811.213196 17.057259,788.407410 
	C17.411356,787.210083 18.128679,786.120178 18.841640,784.637695 
	C25.233667,787.883301 31.413908,790.846252 37.427856,794.115112 
	C46.937405,799.284058 56.297298,804.727844 65.787964,809.932312 
	C94.396942,825.621216 123.029915,841.266357 151.670700,856.897156 
	C166.795792,865.151733 182.018188,873.229736 197.086685,881.585754 
	C219.205902,893.851868 241.209122,906.326965 263.295166,918.653076 
	C278.890472,927.356873 294.596283,935.863586 310.152893,944.635498 
	C328.971954,955.247070 347.667572,966.077271 366.449829,976.754395 
	C386.118042,987.935181 405.871857,998.966003 425.501709,1010.213440 
	C441.729401,1019.511658 457.811615,1029.063232 473.993958,1038.441162 
	C489.726196,1047.558105 505.563629,1056.494751 521.246460,1065.695435 
	C541.735107,1077.715576 562.137817,1089.882568 582.538940,1102.051025 
	C601.817139,1113.549805 621.079224,1125.076172 640.285156,1136.695068 
	C656.378296,1146.430786 672.450378,1156.204956 688.406677,1166.162598 
	C715.502075,1183.071777 742.582275,1200.008179 769.507019,1217.186890 
	C786.371338,1227.946655 802.975830,1239.116211 819.612183,1250.228638 
	C823.244446,1252.654907 823.735901,1256.599365 822.682739,1260.491455 
	C821.645874,1264.323730 818.476257,1265.019897 814.853516,1265.032959 
	C734.915710,1265.322998 654.978333,1265.787231 575.040405,1265.965088 
	C500.877197,1266.130127 426.710846,1266.326660 352.551910,1265.741089 
	C336.554016,1265.614868 320.435089,1262.999634 304.637695,1260.088745 
	C287.300232,1256.893921 270.090027,1252.646362 253.165741,1247.691650 
	C240.655182,1244.029175 228.204910,1239.459106 216.596237,1233.578979 
	C198.367081,1224.345459 180.425201,1214.363159 163.210068,1203.369385 
	C150.531128,1195.272339 138.789490,1185.534912 127.397194,1175.644897 
	C116.127167,1165.860962 105.332924,1155.418335 95.199623,1144.460571 
	C78.672043,1126.588135 64.414635,1106.905762 52.012516,1085.932495 
	C37.681843,1061.697998 25.113346,1036.546875 17.422764,1009.420349 
	C12.259512,991.208313 8.993802,972.453857 5.017242,953.912476 
	C3.730051,947.910706 2.881425,941.814819 1.416103,935.880981 
	C1.000000,910.979126 1.000000,885.958191 0.999985,860.468628 
z"/>
<path fill="#CF0A2C" opacity="1.000000" stroke="none" 
	d="
M2017.000000,960.531372 
	C2016.336670,961.795715 2015.224365,962.515381 2015.075073,963.397949 
	C2010.747559,988.973267 2003.807007,1013.802795 1994.041260,1037.836670 
	C1984.694458,1060.839722 1972.912231,1082.613770 1958.854858,1102.988770 
	C1949.281860,1116.863892 1938.443726,1129.923096 1927.503906,1142.779297 
	C1919.332397,1152.382324 1910.557739,1161.587158 1901.234253,1170.070801 
	C1882.392822,1187.215332 1861.955444,1202.300171 1840.101196,1215.501465 
	C1806.903809,1235.554688 1770.711426,1247.953247 1733.274902,1256.608765 
	C1715.938477,1260.617310 1697.968506,1262.369019 1680.177734,1263.788696 
	C1663.481079,1265.121216 1646.642090,1264.946655 1629.865479,1264.955811 
	C1489.205078,1265.033081 1348.544678,1265.005371 1207.884277,1264.949219 
	C1205.681274,1264.948364 1203.035278,1264.822144 1201.361450,1263.655884 
	C1196.936646,1260.573242 1196.503784,1255.393555 1200.818237,1251.894043 
	C1207.037720,1246.849609 1213.795410,1242.437988 1220.507568,1238.037476 
	C1244.468872,1222.328125 1268.326050,1206.448242 1292.564331,1191.175659 
	C1322.218506,1172.490601 1352.167969,1154.271729 1382.083374,1136.004639 
	C1403.189697,1123.116699 1424.441040,1110.465942 1445.647217,1097.741821 
	C1464.881470,1086.200806 1484.088013,1074.612183 1503.408936,1063.217651 
	C1517.936768,1054.649780 1532.647705,1046.392822 1547.239380,1037.932495 
	C1574.746704,1021.983765 1602.168945,1005.887390 1629.737183,990.045166 
	C1650.175293,978.300293 1670.781128,966.846802 1691.326050,955.288330 
	C1718.166260,940.188049 1744.999756,925.076111 1771.874634,910.037720 
	C1792.591553,898.445129 1813.350708,886.927673 1834.121338,875.431580 
	C1860.232544,860.979675 1886.345215,846.529968 1912.512451,832.179993 
	C1935.093872,819.796326 1957.754150,807.556274 1980.376221,795.246765 
	C1987.798462,791.208008 1995.210449,787.150330 2003.469482,782.641479 
	C2006.429688,793.835205 2009.253540,804.347473 2011.978882,814.885254 
	C2013.472168,820.659180 2014.799316,826.476135 2016.600708,832.136841 
	C2017.000000,874.687561 2017.000000,917.375122 2017.000000,960.531372 
z"/>
<path fill="#232527" opacity="1.000000" stroke="none" 
	d="
M1169.468628,2049.000000 
	C1159.864868,2022.750366 1150.724609,1996.502563 1141.595581,1970.250854 
	C1127.762085,1930.470581 1113.945801,1890.684326 1100.104004,1850.906982 
	C1087.686523,1815.223022 1075.244385,1779.547729 1062.813354,1743.868530 
	C1060.021118,1735.853882 1057.167603,1727.859863 1054.460449,1719.816650 
	C1052.741455,1714.709229 1053.234985,1714.038818 1058.756592,1714.026123 
	C1079.256470,1713.979370 1099.757324,1714.107910 1120.255737,1713.925781 
	C1124.555542,1713.887573 1126.507324,1715.625854 1127.747070,1719.520142 
	C1137.036987,1748.699341 1146.488281,1777.827148 1155.842407,1806.985962 
	C1169.572266,1849.783936 1183.260010,1892.595459 1196.980957,1935.396118 
	C1197.624146,1937.402100 1198.417603,1939.359985 1199.596069,1942.585571 
	C1202.119019,1935.086304 1204.228394,1928.865356 1206.305420,1922.633667 
	C1215.363770,1895.455444 1224.447754,1868.285645 1233.456177,1841.090820 
	C1244.818481,1806.789673 1256.126953,1772.470337 1267.433105,1738.150513 
	C1269.566895,1731.673462 1271.642212,1725.175659 1273.623901,1718.650757 
	C1274.566650,1715.546631 1276.257446,1713.957031 1279.703979,1713.978394 
	C1295.536621,1714.076416 1311.371094,1714.117310 1327.202759,1713.957275 
	C1331.466309,1713.914185 1332.389526,1716.609985 1333.423340,1719.743408 
	C1346.570435,1759.590454 1359.763062,1799.422607 1372.927734,1839.263794 
	C1383.584595,1871.515503 1394.217285,1903.775391 1404.868530,1936.028931 
	C1405.435303,1937.744995 1406.077637,1939.436035 1407.248047,1942.718750 
	C1408.385254,1939.335205 1409.083008,1937.317627 1409.742554,1935.287842 
	C1418.593628,1908.049683 1427.463013,1880.817383 1436.279907,1853.568115 
	C1446.223267,1822.837402 1456.140015,1792.098145 1466.024292,1761.348267 
	C1470.454712,1747.564697 1474.885742,1733.779297 1479.086426,1719.924927 
	C1480.402710,1715.583740 1482.632202,1713.854736 1487.306885,1713.909058 
	C1506.804321,1714.135498 1526.305664,1713.979614 1545.805664,1714.020142 
	C1552.043701,1714.032959 1552.637329,1714.787476 1550.552002,1720.776733 
	C1536.155640,1762.125488 1521.659058,1803.439331 1507.256958,1844.786133 
	C1500.136597,1865.228149 1493.169678,1885.723633 1486.097046,1906.182251 
	C1472.011963,1946.924805 1457.896851,1987.656860 1443.806519,2028.397583 
	C1441.524658,2034.995728 1439.306519,2041.616089 1437.029419,2048.613037 
	C1417.312378,2049.000000 1397.624878,2049.000000 1377.479492,2048.599609 
	C1376.446045,2045.949707 1376.027954,2043.645264 1375.270264,2041.458618 
	C1367.860229,2020.076904 1360.338379,1998.733887 1352.954590,1977.343140 
	C1338.781250,1936.282715 1324.690918,1895.193604 1310.531006,1854.128418 
	C1308.071411,1846.995239 1305.437988,1839.922119 1302.531128,1831.836914 
	C1301.631958,1834.135986 1301.118286,1835.331421 1300.692017,1836.557129 
	C1292.329468,1860.597778 1283.965454,1884.637939 1275.625366,1908.686279 
	C1260.903809,1951.135498 1246.172729,1993.581543 1231.524902,2036.056152 
	C1230.070190,2040.274292 1229.161865,2044.680908 1228.000000,2049.000000 
	C1208.645752,2049.000000 1189.291504,2049.000000 1169.468628,2049.000000 
z"/>
<path fill="#232527" opacity="1.000000" stroke="none" 
	d="
M16.468658,2049.000000 
	C15.999737,1940.686279 15.999425,1832.372681 15.999756,1724.058960 
	C15.999761,1722.559326 16.108227,1721.051880 15.993107,1719.561401 
	C15.678044,1715.481812 17.497314,1713.925781 21.568581,1713.960693 
	C36.231449,1714.086792 50.896111,1714.003540 65.560097,1714.000122 
	C69.726006,1713.999146 73.892075,1713.978638 78.057793,1714.006836 
	C84.717339,1714.052124 84.977531,1714.302246 84.992493,1721.184326 
	C85.018585,1733.182129 85.001152,1745.179932 85.001617,1757.177734 
	C85.002724,1785.505981 84.990898,1813.834106 85.014244,1842.162354 
	C85.019562,1848.621948 85.375710,1848.985107 91.793434,1848.987671 
	C137.951706,1849.005859 184.110001,1849.006470 230.268280,1848.987061 
	C236.641800,1848.984375 236.987640,1848.622681 236.990784,1842.102661 
	C237.010162,1801.943237 236.996811,1761.783936 237.008713,1721.624512 
	C237.010925,1714.137329 237.136337,1714.012695 244.504395,1714.005737 
	C262.501129,1713.989014 280.497864,1713.989014 298.494598,1714.005859 
	C305.864716,1714.012695 305.993591,1714.138550 305.994110,1721.622314 
	C306.001556,1830.435791 305.999664,1939.249268 306.000000,2048.531250 
	C283.312439,2049.000000 260.624878,2049.000000 237.469345,2048.531250 
	C237.001602,2006.083008 237.005600,1964.103394 236.998718,1922.123657 
	C236.997391,1914.026611 236.977737,1914.005249 228.999359,1914.004028 
	C183.687897,1913.996704 138.376434,1913.996704 93.064980,1914.003662 
	C85.027954,1914.004883 85.007355,1914.025024 85.005806,1922.061279 
	C84.997665,1964.374146 85.000786,2006.687134 85.000000,2049.000000 
	C62.312439,2049.000000 39.624878,2049.000000 16.468658,2049.000000 
z"/>
<path fill="#232527" opacity="1.000000" stroke="none" 
	d="
M1606.468628,2049.000000 
	C1605.999512,1940.503784 1605.998657,1832.007446 1605.999878,1723.511230 
	C1605.999878,1721.844727 1606.076782,1720.176636 1606.024292,1718.512207 
	C1605.924438,1715.346313 1607.447021,1713.920288 1610.570801,1714.025146 
	C1612.068481,1714.075562 1613.570068,1714.001953 1615.069824,1714.001953 
	C1691.733887,1714.000244 1768.397827,1713.999023 1845.061890,1714.001709 
	C1853.987305,1714.002075 1853.995239,1714.012085 1853.998291,1722.692749 
	C1854.003662,1738.192261 1854.018677,1753.691650 1853.987793,1769.191162 
	C1853.974854,1775.624634 1853.623169,1775.986084 1847.179199,1775.988159 
	C1792.681030,1776.005493 1738.182983,1775.997559 1683.684814,1776.002808 
	C1674.933105,1776.003662 1674.924072,1776.016357 1674.921265,1784.905151 
	C1674.915527,1802.237915 1674.902832,1819.570557 1674.931030,1836.903320 
	C1674.941895,1843.660889 1675.261841,1843.985840 1681.992676,1843.989502 
	C1718.158081,1844.008789 1754.323608,1843.993652 1790.489014,1844.007690 
	C1797.865112,1844.010498 1797.985962,1844.141846 1797.993896,1851.623169 
	C1798.010620,1867.289307 1798.012695,1882.955444 1797.992310,1898.621582 
	C1797.982910,1905.782837 1797.793213,1905.986572 1790.743286,1905.989746 
	C1754.744507,1906.006348 1718.745850,1905.993652 1682.747070,1906.004639 
	C1675.053955,1906.007080 1674.929932,1906.130615 1674.924927,1913.842285 
	C1674.910767,1935.841553 1674.912720,1957.840698 1674.923584,1979.839966 
	C1674.927612,1987.951294 1674.967651,1987.994995 1682.929199,1987.996094 
	C1739.427246,1988.003418 1795.925293,1987.998413 1852.423340,1988.003418 
	C1860.979248,1988.004272 1860.989990,1988.018799 1860.994141,1996.564331 
	C1861.002441,2013.730469 1860.997925,2030.896606 1860.999390,2048.531250 
	C1776.312378,2049.000000 1691.624878,2049.000000 1606.468628,2049.000000 
z"/>
<path fill="#232527" opacity="1.000000" stroke="none" 
	d="
M723.468628,2049.000000 
	C735.275391,2021.319580 747.566895,1993.646118 759.820618,1965.956177 
	C768.033752,1947.396606 776.204773,1928.818237 784.374512,1910.239624 
	C803.727295,1866.229980 823.061035,1822.212036 842.417114,1778.203979 
	C851.122986,1758.410156 859.888977,1738.642700 868.563477,1718.835205 
	C869.983948,1715.591675 871.997986,1713.924805 875.768677,1713.955200 
	C892.594666,1714.090332 909.422668,1714.071777 926.249146,1713.969360 
	C930.103455,1713.945923 932.348389,1715.484253 933.898254,1719.014893 
	C952.016541,1760.291260 970.282654,1801.502808 988.402527,1842.778442 
	C1003.179749,1876.440063 1017.746460,1910.193970 1032.527344,1943.853882 
	C1047.840454,1978.725586 1063.299194,2013.533203 1078.847168,2048.684570 
	C1054.979126,2049.000000 1030.958252,2049.000000 1006.394592,2048.644531 
	C996.643982,2026.921997 987.367920,2005.583862 978.302185,1984.156860 
	C976.957947,1980.979980 975.035278,1979.982422 971.847717,1979.985229 
	C924.248352,1980.027344 876.649048,1980.032471 829.049744,1979.972534 
	C825.650208,1979.968262 823.601990,1981.038452 822.188049,1984.348145 
	C815.531128,1999.930420 808.551270,2015.374390 801.866821,2030.945068 
	C799.329102,2036.856567 797.274719,2042.975586 795.000000,2049.000000 
	C771.312439,2049.000000 747.624878,2049.000000 723.468628,2049.000000 
M862.757324,1888.222534 
	C858.561462,1898.048340 854.365662,1907.874268 849.822144,1918.514282 
	C853.343567,1918.734741 855.453918,1918.979614 857.564575,1918.981689 
	C884.866211,1919.007935 912.167969,1919.030762 939.469543,1918.985718 
	C951.544556,1918.965942 951.934509,1920.640015 946.561646,1908.142700 
	C933.299194,1877.294067 920.007019,1846.458374 906.681458,1815.637085 
	C904.815735,1811.321777 902.695190,1807.116699 900.692627,1802.860718 
	C900.235718,1802.880981 899.778748,1802.901245 899.321838,1802.921509 
	C887.213745,1831.114136 875.105652,1859.306641 862.757324,1888.222534 
z"/>
<path fill="#232527" opacity="1.000000" stroke="none" 
	d="
M489.468689,2049.000000 
	C484.466064,2046.772339 480.018036,2044.344971 475.383820,2042.350342 
	C451.150452,2031.920410 432.706940,2015.116089 419.617065,1992.278320 
	C408.391266,1972.692749 402.941254,1951.404785 400.997772,1929.120361 
	C400.334076,1921.510498 400.051178,1913.844849 400.041901,1906.204102 
	C399.967743,1845.041016 399.999268,1783.877808 400.002960,1722.714722 
	C400.003479,1714.011353 400.014740,1714.004028 408.919067,1714.001587 
	C426.418060,1713.996704 443.917023,1713.989502 461.416016,1714.006470 
	C468.868317,1714.013672 468.992157,1714.129639 468.993317,1721.545288 
	C469.003326,1785.208252 468.745331,1848.872803 469.152618,1912.533203 
	C469.278381,1932.191895 474.314331,1950.851929 487.304291,1966.389404 
	C499.211060,1980.631226 515.304565,1986.872925 533.222412,1988.878906 
	C545.505249,1990.254150 557.795532,1989.756836 569.806763,1986.509644 
	C597.427917,1979.042358 612.576660,1960.010620 617.728760,1932.797363 
	C619.939941,1921.117920 620.797974,1909.031006 620.860718,1897.121826 
	C621.168030,1838.793457 620.997620,1780.462646 621.003845,1722.132690 
	C621.004700,1714.025635 621.024597,1714.008057 628.998047,1714.003662 
	C647.163635,1713.993530 665.329346,1713.980347 683.494873,1714.015869 
	C689.595337,1714.027710 689.978333,1714.411865 689.980164,1720.616577 
	C689.997864,1780.779785 690.291504,1840.945068 689.854553,1901.105103 
	C689.655518,1928.501465 686.563232,1955.697144 674.838684,1980.958984 
	C666.709656,1998.473877 655.631897,2013.915161 640.157654,2026.002930 
	C628.868713,2034.821045 616.523071,2041.425903 603.081421,2046.169067 
	C601.721680,2046.648804 600.534424,2047.617798 599.133545,2048.679932 
	C562.645752,2049.000000 526.291565,2049.000000 489.468689,2049.000000 
z"/>
<path fill="#232527" opacity="1.000000" stroke="none" 
	d="
M1941.468628,2049.000000 
	C1941.000000,1940.862671 1940.999756,1832.725220 1941.000854,1724.587891 
	C1941.000854,1722.755127 1941.096558,1720.918213 1941.004272,1719.090454 
	C1940.823486,1715.504883 1942.416260,1713.976074 1946.039307,1713.989136 
	C1965.367065,1714.058716 1984.695312,1714.059570 2004.023071,1713.990234 
	C2007.695068,1713.977051 2009.172852,1715.616577 2008.996460,1719.152832 
	C2008.905273,1720.980713 2008.999146,1722.817627 2008.999146,1724.650391 
	C2009.000122,1832.454468 2009.000000,1940.258667 2009.000000,2048.531250 
	C1986.645752,2049.000000 1964.291504,2049.000000 1941.468628,2049.000000 
z"/>
<path fill="#000000" opacity="1.000000" stroke="none" 
	d="
M85.468658,2049.000000 
	C85.000786,2006.687134 84.997665,1964.374146 85.005806,1922.061279 
	C85.007355,1914.025024 85.027954,1914.004883 93.064980,1914.003662 
	C138.376434,1913.996704 183.687897,1913.996704 228.999359,1914.004028 
	C236.977737,1914.005249 236.997391,1914.026611 236.998718,1922.123657 
	C237.005600,1964.103394 237.001602,2006.083008 237.000687,2048.531250 
	C186.645767,2049.000000 136.291550,2049.000000 85.468658,2049.000000 
z"/>
<path fill="#000000" opacity="1.000000" stroke="none" 
	d="
M1228.468628,2049.000000 
	C1229.161865,2044.680908 1230.070190,2040.274292 1231.524902,2036.056152 
	C1246.172729,1993.581543 1260.903809,1951.135498 1275.625366,1908.686279 
	C1283.965454,1884.637939 1292.329468,1860.597778 1300.692017,1836.557129 
	C1301.118286,1835.331421 1301.631958,1834.135986 1302.531128,1831.836914 
	C1305.437988,1839.922119 1308.071411,1846.995239 1310.531006,1854.128418 
	C1324.690918,1895.193604 1338.781250,1936.282715 1352.954590,1977.343140 
	C1360.338379,1998.733887 1367.860229,2020.076904 1375.270264,2041.458618 
	C1376.027954,2043.645264 1376.446045,2045.949707 1377.010864,2048.599609 
	C1327.645752,2049.000000 1278.291504,2049.000000 1228.468628,2049.000000 
z"/>
<path fill="#000000" opacity="1.000000" stroke="none" 
	d="
M795.468689,2049.000000 
	C797.274719,2042.975586 799.329102,2036.856567 801.866821,2030.945068 
	C808.551270,2015.374390 815.531128,1999.930420 822.188049,1984.348145 
	C823.601990,1981.038452 825.650208,1979.968262 829.049744,1979.972534 
	C876.649048,1980.032471 924.248352,1980.027344 971.847717,1979.985229 
	C975.035278,1979.982422 976.957947,1980.979980 978.302185,1984.156860 
	C987.367920,2005.583862 996.643982,2026.921997 1005.925903,2048.644531 
	C935.979126,2049.000000 865.958191,2049.000000 795.468689,2049.000000 
z"/>
<path fill="#CF0A2C" opacity="1.000000" stroke="none" 
	d="
M1561.753662,467.796143 
	C1571.780396,453.773346 1581.482910,439.963470 1591.367188,426.284760 
	C1603.152710,409.975159 1615.004150,393.711548 1626.992554,377.550751 
	C1639.055664,361.289124 1651.184448,345.072205 1663.534912,329.028412 
	C1678.546753,309.527313 1693.784790,290.199249 1709.094238,270.930908 
	C1709.805054,270.036285 1712.964600,269.680328 1713.642334,270.377441 
	C1724.027100,281.059143 1734.360840,291.802307 1744.346802,302.856079 
	C1752.062866,311.397278 1759.705200,320.068970 1766.625488,329.251587 
	C1780.645142,347.854401 1794.873535,366.366730 1807.702515,385.784180 
	C1827.048706,415.066071 1843.051025,446.157776 1855.251709,479.219543 
	C1863.097412,500.480499 1869.020386,522.171509 1872.836548,544.419434 
	C1876.234253,564.227234 1876.979492,584.328613 1875.873779,604.353882 
	C1874.136230,635.823425 1867.350586,666.279114 1854.893066,695.325928 
	C1844.171631,720.324280 1830.833496,743.896667 1813.427734,764.813904 
	C1801.795654,778.792480 1789.432983,792.291565 1776.305542,804.865540 
	C1759.536865,820.926941 1742.247803,836.564026 1724.128418,851.066406 
	C1701.135498,869.469299 1677.365479,886.942932 1653.409912,904.089661 
	C1629.295654,921.349731 1604.902100,938.275269 1579.977051,954.332336 
	C1550.260742,973.475891 1519.994507,991.781677 1489.695679,1009.999878 
	C1462.025269,1026.637695 1434.117432,1042.891113 1406.083374,1058.910156 
	C1381.890015,1072.734619 1357.451172,1086.136597 1332.974976,1099.457397 
	C1308.750732,1112.641113 1284.393921,1125.583618 1260.001465,1138.454468 
	C1240.673462,1148.652954 1221.213257,1158.601318 1201.793457,1168.625610 
	C1188.791626,1175.336914 1175.766602,1182.003784 1162.733276,1188.653809 
	C1158.737061,1190.692993 1154.391602,1191.243286 1151.407349,1187.552734 
	C1149.892090,1185.678955 1149.159668,1181.887939 1149.969116,1179.648926 
	C1152.918579,1171.490112 1156.437134,1163.510864 1160.160767,1155.663208 
	C1168.962402,1137.113281 1177.952393,1118.652222 1186.962769,1100.202393 
	C1199.014893,1075.524414 1210.858154,1050.737793 1223.343750,1026.280029 
	C1236.861938,999.799622 1250.867188,973.564026 1264.936523,947.370239 
	C1277.412354,924.143066 1290.006958,900.971741 1303.022705,878.044617 
	C1318.389282,850.976379 1334.085083,824.090576 1349.966675,797.320496 
	C1368.349121,766.334595 1386.916504,735.455078 1405.731079,704.730042 
	C1419.572632,682.126221 1433.712891,659.697144 1448.128540,637.455017 
	C1469.150269,605.020752 1490.341919,572.692322 1511.836548,540.570129 
	C1527.672485,516.904724 1544.110474,493.642059 1560.271240,470.193817 
	C1560.735352,469.520264 1561.099243,468.777588 1561.753662,467.796143 
z"/>
<path fill="#CF0A2C" opacity="1.000000" stroke="none" 
	d="
M780.999329,993.014038 
	C799.737549,1030.228516 818.558472,1066.992798 836.964050,1103.963745 
	C846.392700,1122.902832 855.102173,1142.200562 864.085938,1161.359985 
	C866.792480,1167.131836 869.382874,1172.960083 871.922058,1178.807861 
	C873.351929,1182.100830 874.094910,1185.335815 871.115173,1188.431274 
	C867.829590,1191.844360 864.401489,1191.136963 860.778870,1189.333618 
	C845.601013,1181.777466 830.362549,1174.339966 815.263489,1166.629395 
	C794.934753,1156.248291 774.662048,1145.754395 754.462036,1135.125122 
	C735.748657,1125.278076 717.102112,1115.299927 698.535278,1105.179443 
	C672.935791,1091.225464 647.283875,1077.355835 621.941101,1062.945679 
	C596.193115,1048.305176 570.687622,1033.229004 545.270996,1018.017700 
	C519.703796,1002.716187 494.203308,987.288696 468.993042,971.409302 
	C443.347961,955.255981 417.744812,938.990601 392.764130,921.840820 
	C367.762695,904.676758 343.311920,886.679260 319.089600,868.423645 
	C304.913483,857.739502 291.488831,846.030273 278.036896,834.422058 
	C266.783478,824.711121 256.173645,814.255188 244.937790,804.522949 
	C223.820984,786.231995 206.298889,764.910217 191.135971,741.589600 
	C172.198715,712.464172 158.656723,680.906189 151.270126,647.004395 
	C148.208252,632.951477 147.427505,618.370300 146.087677,603.984924 
	C145.259323,595.091064 144.630356,586.070862 145.169693,577.183655 
	C145.914688,564.907654 147.355408,552.622375 149.370178,540.485779 
	C153.517319,515.504272 161.083389,491.398773 171.218582,468.275269 
	C179.184082,450.102020 188.189087,432.324036 197.743713,414.925873 
	C206.099899,399.709930 215.254318,384.842743 225.166946,370.594299 
	C236.944809,353.664795 249.401169,337.143158 262.495117,321.210419 
	C277.354004,303.130096 293.244049,285.897156 309.369995,267.515869 
	C314.467987,273.569916 318.806335,278.434753 322.826843,283.549469 
	C335.605560,299.805969 348.399567,316.053711 360.932739,332.499054 
	C372.545807,347.737061 383.877350,363.190796 395.249603,378.610931 
	C411.093597,400.094513 426.996277,421.537048 442.610870,443.186798 
	C452.676117,457.142334 462.362793,471.374542 472.056396,485.593658 
	C495.389801,519.820496 518.973145,553.884277 541.803650,588.444519 
	C563.294800,620.977356 584.128418,653.949951 604.917358,686.939514 
	C620.539978,711.730774 635.771973,736.771729 650.922791,761.855591 
	C665.052551,785.249023 679.004700,808.753479 692.732300,832.384949 
	C702.197388,848.678528 711.229919,865.225891 720.307983,881.741028 
	C736.257996,910.758057 752.098022,939.835510 767.976868,968.891602 
	C772.300903,976.803833 776.599731,984.729858 780.999329,993.014038 
z"/>
<path fill="#CF0A2C" opacity="1.000000" stroke="none" 
	d="
M1554.703979,1322.013428 
	C1556.786987,1322.346680 1558.387329,1322.910767 1560.002808,1322.957764 
	C1573.770020,1323.358643 1587.540039,1323.660278 1601.309082,1324.001221 
	C1614.583252,1324.329834 1627.858154,1324.633301 1641.130737,1325.016724 
	C1650.403198,1325.284424 1659.672241,1325.676636 1668.943115,1325.998779 
	C1688.323608,1326.672363 1707.704834,1327.327759 1727.084961,1328.008423 
	C1735.857910,1328.316650 1744.628418,1328.697998 1753.401733,1328.993774 
	C1773.778687,1329.681152 1794.159424,1330.270386 1814.533203,1331.039307 
	C1822.235962,1331.329956 1829.924072,1332.005737 1838.410034,1332.557373 
	C1833.261353,1340.960693 1828.726074,1349.309448 1823.299072,1357.031616 
	C1810.496216,1375.249023 1797.993042,1393.755127 1783.988037,1411.024902 
	C1772.432007,1425.274780 1759.495239,1438.558594 1746.096191,1451.125000 
	C1725.682007,1470.270386 1703.021606,1486.597046 1677.809570,1498.993164 
	C1655.811035,1509.809448 1632.885254,1517.778442 1608.396362,1521.140747 
	C1575.577271,1525.646484 1543.729858,1523.305420 1513.198975,1509.614136 
	C1498.400513,1502.978027 1483.217773,1497.030396 1468.987427,1489.332153 
	C1442.937744,1475.240112 1417.217285,1460.493896 1391.822144,1445.250000 
	C1365.732422,1429.588989 1339.973755,1413.347290 1314.485107,1396.723755 
	C1292.830933,1382.601074 1271.745117,1367.604614 1250.450317,1352.933350 
	C1237.505493,1344.014893 1224.486206,1335.187500 1211.885132,1325.802734 
	C1209.652100,1324.139648 1208.223145,1319.881592 1208.374268,1316.921631 
	C1208.557251,1313.338379 1211.730713,1310.952759 1215.765869,1311.021851 
	C1233.201782,1311.320801 1250.638062,1311.630249 1268.071411,1312.050049 
	C1273.181641,1312.172974 1278.278564,1312.815674 1283.389160,1312.972168 
	C1296.993896,1313.388672 1310.603882,1313.630859 1324.209595,1314.018677 
	C1333.317139,1314.278320 1342.420166,1314.686890 1351.526367,1314.996338 
	C1371.569092,1315.677246 1391.613037,1316.324951 1411.655396,1317.012695 
	C1420.256592,1317.307739 1428.854492,1317.697021 1437.455688,1317.993896 
	C1457.333740,1318.680176 1477.212891,1319.329590 1497.091187,1320.007080 
	C1506.365234,1320.323242 1515.637939,1320.676636 1524.911743,1321.001221 
	C1534.683594,1321.343262 1544.456177,1321.670776 1554.703979,1322.013428 
z"/>
<path fill="#CF0A2C" opacity="1.000000" stroke="none" 
	d="
M811.326538,1323.172607 
	C802.923157,1329.519531 794.989502,1335.905884 786.618408,1341.655273 
	C756.638428,1362.245850 726.663513,1382.850952 696.383972,1402.995605 
	C676.360229,1416.317261 655.936890,1429.052124 635.469604,1441.688599 
	C620.463745,1450.953247 605.298645,1460.001221 589.838867,1468.478882 
	C569.818054,1479.457520 549.648682,1490.212524 529.144348,1500.248657 
	C509.276947,1509.973145 488.609467,1517.943726 466.486816,1520.829712 
	C455.699921,1522.236816 444.709106,1523.202393 433.864624,1522.822876 
	C408.080902,1521.920410 383.291016,1515.963013 359.513641,1505.857666 
	C336.286407,1495.986328 314.634094,1483.215576 295.189880,1467.339600 
	C279.072845,1454.180298 263.914215,1439.674194 249.513763,1424.632446 
	C233.981003,1408.407959 220.064636,1390.680664 207.912140,1371.680542 
	C199.736786,1358.898560 191.520935,1346.142578 182.838547,1332.619995 
	C189.598267,1331.992676 194.921997,1331.212036 200.263992,1331.056030 
	C216.700272,1330.575439 233.146484,1330.438110 249.583328,1329.972656 
	C269.136047,1329.418823 288.683197,1328.667847 308.232452,1327.993042 
	C317.507629,1327.672852 326.781921,1327.326660 336.056885,1327.000000 
	C355.106293,1326.329224 374.155945,1325.665405 393.205353,1324.994263 
	C402.481781,1324.667603 411.757568,1324.323120 421.034149,1324.000732 
	C440.413635,1323.327148 459.793671,1322.670410 479.172974,1321.991699 
	C488.114288,1321.678711 497.053802,1321.315308 505.995117,1321.002319 
	C525.376221,1320.324097 544.758118,1319.667114 564.139404,1318.993408 
	C573.413086,1318.671143 582.685730,1318.319458 591.959534,1318.001465 
	C611.674866,1317.325684 631.391296,1316.679932 651.106079,1315.990479 
	C669.490417,1315.347534 687.872986,1314.653564 706.257019,1314.001953 
	C725.473633,1313.320923 744.694885,1312.756714 763.906677,1311.961060 
	C775.298462,1311.489380 786.671448,1310.569824 798.062622,1310.073364 
	C800.971008,1309.946777 803.964417,1310.433960 806.834717,1311.038574 
	C813.590820,1312.461426 815.198425,1316.646118 811.326538,1323.172607 
z"/>
<path fill="#000000" opacity="1.000000" stroke="none" 
	d="
M862.877441,1887.860840 
	C875.105652,1859.306641 887.213745,1831.114136 899.321838,1802.921509 
	C899.778748,1802.901245 900.235718,1802.880981 900.692627,1802.860718 
	C902.695190,1807.116699 904.815735,1811.321777 906.681458,1815.637085 
	C920.007019,1846.458374 933.299194,1877.294067 946.561646,1908.142700 
	C951.934509,1920.640015 951.544556,1918.965942 939.469543,1918.985718 
	C912.167969,1919.030762 884.866211,1919.007935 857.564575,1918.981689 
	C855.453918,1918.979614 853.343567,1918.734741 849.822144,1918.514282 
	C854.365662,1907.874268 858.561462,1898.048340 862.877441,1887.860840 
z"/>
</svg>