<svg width="90" height="90" viewBox="0 0 90 90" fill="none" xmlns="http://www.w3.org/2000/svg">
<path d="M82 19.8506C78.0514 14.0536 72.8435 9.25014 66.7762 5.80903C60.709 2.36792 53.9437 0.380717 47 0L70.2885 40L82 19.8506Z" fill="#393A3B"/>
<path d="M79 57.5729V75C86.1098 66.8385 90.0159 56.4007 90 45.6058C89.9999 43.7318 89.883 41.8596 89.65 40L79 57.5729Z" fill="#393A3B"/>
<path d="M29.0133 3C23.4899 5.08746 18.4321 8.24839 14.1303 12.3013C9.82847 16.3542 6.36737 21.2193 3.9457 26.6172C1.52404 32.015 0.18952 37.8394 0.0187601 43.7559C-0.152 49.6724 0.844367 55.5644 2.95065 61.0937C5.05694 66.623 8.23165 71.6806 12.2925 75.9762C16.3534 80.2718 21.2204 83.7208 26.6142 86.1251C32.008 88.5294 37.8222 89.8416 43.7231 89.9865C49.624 90.1314 55.4953 89.1061 61 86.9694V56.5731L29.0133 3Z" fill="#393A3B"/>
</svg>
